# Blender v2.82 (sub 7) OBJ File: ''
# www.blender.org
mtllib tank_turret.mtl
o Cylinder
v 0.860000 -0.580000 0.000000
v 0.860000 0.324965 0.000000
v 0.430000 -0.580000 0.744782
v 0.430000 0.324965 0.744782
v -0.430000 -0.580000 0.744782
v -0.430000 0.324965 0.744782
v -0.860000 -0.580000 -0.000000
v -0.860000 0.324965 -0.000000
v -0.430000 -0.580000 -0.744782
v -0.430000 0.324965 -0.744782
v 0.430000 -0.580000 -0.744782
v 0.430000 0.324965 -0.744782
v 0.362407 0.499888 0.627707
v 0.724814 0.499888 -0.000000
v -0.362407 0.499888 0.627707
v -0.724814 0.499888 -0.000000
v -0.362407 0.499888 -0.627707
v 0.362407 0.499888 -0.627707
vt 1.000000 0.500000
vt 1.000000 1.000000
vt 0.833333 1.000000
vt 0.833333 0.500000
vt 0.666667 1.000000
vt 0.666667 0.500000
vt 0.500000 1.000000
vt 0.500000 0.500000
vt 0.333333 1.000000
vt 0.333333 0.500000
vt 0.500000 1.000000
vt 0.333333 1.000000
vt 0.166667 1.000000
vt 0.166667 0.500000
vt -0.000000 1.000000
vt -0.000000 0.500000
vt 0.750000 0.490000
vt 0.957846 0.370000
vt 0.957846 0.130000
vt 0.750000 0.010000
vt 0.542154 0.130000
vt 0.542154 0.370000
vt 0.457846 0.370000
vt 0.250000 0.490000
vt 0.042154 0.370000
vt 0.042154 0.130000
vt 0.250000 0.010000
vt 0.457846 0.130000
vt 0.833333 1.000000
vt 0.666667 1.000000
vt 0.166667 1.000000
vt 1.000000 1.000000
vt -0.000000 1.000000
vn 0.8660 0.0000 0.5000
vn -0.0000 0.0000 1.0000
vn -0.8660 0.0000 0.5000
vn -0.8660 0.0000 -0.5000
vn -0.7197 0.5562 -0.4155
vn 0.0000 0.0000 -1.0000
vn 0.8660 0.0000 -0.5000
vn 0.0000 -1.0000 0.0000
vn 0.0000 1.0000 -0.0000
vn 0.0000 0.5562 0.8310
vn 0.0000 0.5562 -0.8310
vn 0.7197 0.5562 0.4155
vn -0.7197 0.5562 0.4155
vn 0.7197 0.5562 -0.4155
usemtl None
s off
f 1/1/1 2/2/1 4/3/1 3/4/1
f 3/4/2 4/3/2 6/5/2 5/6/2
f 5/6/3 6/5/3 8/7/3 7/8/3
f 7/8/4 8/7/4 10/9/4 9/10/4
f 10/9/5 8/7/5 16/11/5 17/12/5
f 9/10/6 10/9/6 12/13/6 11/14/6
f 11/14/7 12/13/7 2/15/7 1/16/7
f 1/17/8 3/18/8 5/19/8 7/20/8 9/21/8 11/22/8
f 13/23/9 14/24/9 18/25/9 17/26/9 16/27/9 15/28/9
f 6/5/10 4/3/10 13/29/10 15/30/10
f 12/13/11 10/9/11 17/12/11 18/31/11
f 4/3/12 2/2/12 14/32/12 13/29/12
f 8/7/13 6/5/13 15/30/13 16/11/13
f 2/15/14 12/13/14 18/31/14 14/33/14
